<svg width="834" height="834" viewBox="0 0 834 834" fill="none" xmlns="http://www.w3.org/2000/svg">
<rect width="834" height="834" rx="177" fill="#141414"/>
<path fill-rule="evenodd" clip-rule="evenodd" d="M619.262 557.11L619.258 557.142C618.971 559.303 618.426 560.952 617.265 562.431C616.116 563.894 614.393 565.152 611.837 566.598L611.827 566.604L426.541 666.258L426.519 666.27L426.495 666.28C420.081 668.892 415.045 670.441 410.061 670.552C405.065 670.663 400.168 669.328 394.024 666.265L394.015 666.261L394.008 666.256L221.173 571.873C218.429 570.397 216.634 569.242 215.498 568.093C214.334 566.915 213.866 565.749 213.74 564.307L213.738 564.286V538.062L393.502 637.144L394.482 637.65C399.315 640.098 403.137 641.336 406.928 641.36C410.97 641.384 415.044 640.028 420.341 637.148L420.347 637.144L619.262 532.81V557.11Z" fill="white"/>
<path d="M620.698 557.194L620.688 557.277L620.684 557.309L620.683 557.32L620.682 557.331C620.375 559.645 619.768 561.569 618.395 563.319C617.071 565.004 615.154 566.37 612.566 567.836L612.537 567.854L612.507 567.87L427.225 667.521L427.203 667.534L427.129 667.574L427.052 667.605L427.036 667.61C420.586 670.236 415.35 671.872 410.093 671.989C404.799 672.107 399.678 670.684 393.425 667.571L393.339 667.533L393.275 667.492L219.498 572.595C217.261 571.348 215.615 570.254 214.477 569.103C213.063 567.673 212.464 566.188 212.31 564.436L212.31 564.437L212.308 564.416L212.302 564.352V535.629L394.161 635.867L395.141 636.373C399.885 638.775 403.469 639.901 406.937 639.922C410.615 639.944 414.424 638.722 419.602 635.912L419.613 635.906L419.68 635.871L620.698 530.434V557.194ZM421.086 638.378L421.084 638.38L421.027 638.411C415.638 641.341 411.312 642.823 406.92 642.797C402.806 642.772 398.751 641.423 393.833 638.932L393.823 638.927L392.843 638.421L392.809 638.403L215.175 540.494V564.213C215.277 565.327 215.614 566.167 216.519 567.082C217.491 568.065 219.115 569.135 221.852 570.607L221.861 570.612L394.673 664.982C400.685 667.979 405.344 669.219 410.029 669.115C414.73 669.01 419.553 667.551 425.911 664.965L611.13 565.347C613.643 563.925 615.164 562.779 616.136 561.543C617.074 560.347 617.557 558.989 617.825 557.012V535.185L421.086 638.378Z" fill="white"/>
<path fill-rule="evenodd" clip-rule="evenodd" d="M619.262 490.976L619.261 490.989C619.111 493.649 618.627 495.595 617.446 497.165C616.274 498.722 614.463 499.845 611.81 500.975C611.805 500.977 611.801 500.981 611.795 500.984C611.772 500.996 611.739 501.014 611.695 501.038C611.606 501.086 611.473 501.157 611.299 501.251C610.95 501.439 610.433 501.719 609.757 502.084C608.406 502.813 606.422 503.883 603.896 505.247C598.843 507.974 591.618 511.873 582.926 516.564C565.543 525.944 542.295 538.489 518.836 551.144C471.923 576.452 424.161 602.206 420.792 603.976C413.874 607.611 407.509 605.934 403.139 603.99C400.966 603.024 355.456 579.174 310.528 555.586C288.055 543.789 265.717 532.05 248.998 523.262C240.638 518.868 233.682 515.211 228.817 512.652C226.384 511.373 224.474 510.369 223.172 509.684C222.521 509.342 222.022 509.079 221.686 508.902C221.518 508.813 221.39 508.746 221.304 508.702C221.262 508.679 221.229 508.662 221.208 508.651C221.205 508.649 221.202 508.647 221.199 508.645C218.794 507.72 217.08 506.834 215.893 505.603C214.685 504.35 214.067 502.788 213.744 500.615L213.738 500.579V475.307L399.252 575.342L399.265 575.35C402.724 577.358 405.409 578.29 408.134 578.272C410.695 578.255 413.352 577.399 416.781 575.691L417.478 575.337L619.262 469.088V490.976Z" fill="white"/>
<path d="M620.698 491.027L620.694 491.068L620.695 491.069C620.539 493.846 620.024 496.128 618.593 498.029C617.202 499.878 615.13 501.115 612.447 502.264C612.439 502.269 612.431 502.273 612.425 502.277C612.409 502.285 612.394 502.294 612.376 502.303C612.332 502.327 612.276 502.357 612.21 502.393C612.144 502.428 612.068 502.469 611.981 502.516C611.677 502.68 611.07 503.008 610.439 503.349C609.088 504.078 607.103 505.149 604.578 506.512C599.525 509.239 592.299 513.139 583.608 517.829C566.224 527.209 542.976 539.754 519.518 552.409C472.612 577.713 424.838 603.474 421.46 605.249C413.982 609.178 407.109 607.329 402.556 605.304C400.325 604.312 354.738 580.42 309.86 556.859C287.388 545.061 265.05 533.323 248.33 524.534C239.97 520.14 233.015 516.483 228.149 513.925C225.717 512.646 223.805 511.641 222.503 510.957C221.879 510.628 221.325 510.336 221.017 510.174C220.934 510.131 220.861 510.092 220.798 510.058C220.734 510.025 220.68 509.997 220.636 509.974C220.621 509.966 220.608 509.958 220.596 509.952C218.197 509.024 216.26 508.054 214.86 506.602C213.373 505.06 212.674 503.177 212.325 500.839L212.32 500.804L212.302 500.692V472.9L399.934 574.077L399.949 574.085L399.964 574.094L399.978 574.101L399.986 574.106C403.342 576.055 405.765 576.85 408.124 576.835C410.361 576.82 412.783 576.076 416.132 574.409L416.828 574.055L620.698 466.708V491.027ZM418.147 576.609L418.137 576.615L418.128 576.619L417.431 576.973L417.421 576.978C413.917 578.723 411.027 579.69 408.143 579.709C405.06 579.73 402.121 578.666 398.57 576.607L215.175 477.714V500.467C215.474 502.431 216.008 503.653 216.925 504.605C217.882 505.597 219.344 506.392 221.714 507.304L221.793 507.334L221.868 507.374C221.871 507.375 221.874 507.377 221.877 507.378L221.915 507.399C221.931 507.407 221.951 507.417 221.973 507.429L221.97 507.433L221.969 507.432C221.967 507.43 221.964 507.428 221.961 507.426C221.965 507.429 221.968 507.431 221.97 507.433C221.972 507.434 221.975 507.436 221.975 507.436C221.975 507.436 221.973 507.434 221.97 507.433L221.973 507.429C222.015 507.451 222.067 507.478 222.131 507.512C222.195 507.546 222.27 507.585 222.354 507.629C222.719 507.821 223.163 508.055 223.84 508.411C225.142 509.096 227.052 510.1 229.485 511.38C234.35 513.938 241.306 517.595 249.665 521.989C266.385 530.778 288.723 542.516 311.195 554.314C356.174 577.927 401.606 601.735 403.723 602.676C407.91 604.539 413.767 606.044 420.124 602.704C423.485 600.938 471.234 575.191 518.155 549.878C541.613 537.224 564.861 524.679 582.244 515.299C590.936 510.608 598.162 506.708 603.214 503.982C605.741 502.618 607.723 501.549 609.075 500.819C609.795 500.43 610.223 500.199 610.617 499.986C610.705 499.939 610.781 499.897 610.847 499.861C610.914 499.826 610.969 499.796 611.013 499.773C611.04 499.758 611.063 499.745 611.08 499.736C611.085 499.734 611.089 499.731 611.092 499.73C611.101 499.725 611.109 499.72 611.119 499.715L611.181 499.681L611.247 499.653C613.834 498.551 615.358 497.549 616.298 496.3C617.228 495.065 617.681 493.458 617.825 490.922V471.468L418.147 576.609ZM611.015 499.777L611.006 499.783L611.01 499.781C611.01 499.781 611.013 499.779 611.015 499.777ZM220.481 509.891C220.489 509.895 220.499 509.9 220.509 509.906C220.492 509.897 220.479 509.888 220.467 509.882C220.472 509.884 220.476 509.888 220.481 509.891Z" fill="white"/>
<path fill-rule="evenodd" clip-rule="evenodd" d="M503.667 411.156C504.724 411.153 505.87 411.497 507.29 412.142L507.916 412.437L507.929 412.443L507.942 412.451L527.38 423.423L354.722 514.383L354.721 514.383C352.973 515.331 351.513 515.897 349.945 515.926C348.375 515.954 346.762 515.445 344.704 514.385L344.696 514.382L325.229 503.892L500.276 412.457C501.413 411.626 502.446 411.16 503.667 411.156Z" fill="white"/>
<path d="M503.662 409.719C505.027 409.714 506.398 410.159 507.884 410.834L507.892 410.838L507.901 410.841L508.528 411.136L508.543 411.144L508.559 411.151L508.607 411.175L508.642 411.195L508.648 411.199L530.38 423.467L354.455 516.148L354.444 516.138C352.975 516.854 351.545 517.334 349.971 517.363C348.069 517.398 346.218 516.777 344.089 515.684L344.063 515.673L344.015 515.647L322.162 503.872L499.536 411.221C500.774 410.334 502.07 409.724 503.662 409.719ZM503.672 412.593C502.868 412.596 502.127 412.883 501.123 413.618L501.036 413.681L500.94 413.732L328.294 503.911L345.32 513.086L345.325 513.088L345.362 513.107C347.329 514.121 348.693 514.511 349.918 514.488C351.141 514.466 352.356 514.031 354.037 513.119L354.978 512.607L354.989 512.618L524.378 423.379L507.263 413.718L506.696 413.451L506.208 413.237C505.114 412.778 504.327 412.591 503.672 412.593Z" fill="white"/>
<path fill-rule="evenodd" clip-rule="evenodd" d="M379.874 439.504L310.451 476.911V446.596L310.705 446.461L379.874 409.675V439.504Z" fill="white"/>
<path d="M381.31 440.363L309.015 479.318V445.73L310.033 445.191L381.31 407.283V440.363ZM311.887 447.459V474.504L378.437 438.646V412.065L311.887 447.459Z" fill="white"/>
<path fill-rule="evenodd" clip-rule="evenodd" d="M282.905 446.46L283.161 446.594V476.907L213.035 439.641L212.781 439.506V409.68L282.905 446.46Z" fill="white"/>
<path d="M283.569 445.185L283.826 445.319L284.597 445.723V479.297L212.362 440.911L212.363 440.91L212.109 440.776L211.345 440.372V407.304L283.569 445.185ZM214.217 438.641L281.725 474.515V447.463L214.217 412.055V438.641Z" fill="white"/>
<path fill-rule="evenodd" clip-rule="evenodd" d="M379.874 374.346L310.451 411.753V381.437L310.705 381.302L379.874 344.516V374.346Z" fill="white"/>
<path d="M381.31 375.204L309.015 414.16V380.572L310.033 380.033L381.31 342.124V375.204ZM311.887 382.301V409.346L378.437 373.488V346.907L311.887 382.301Z" fill="white"/>
<path fill-rule="evenodd" clip-rule="evenodd" d="M282.905 381.302L283.161 381.435V411.748L213.035 374.483L212.781 374.348V344.522L282.905 381.302Z" fill="white"/>
<path d="M283.569 380.027L283.826 380.161L284.597 380.564V414.139L212.362 375.753L212.363 375.752L212.109 375.618L211.345 375.214V342.146L283.569 380.027ZM214.217 373.482L281.725 409.356V382.305L214.217 346.897V373.482Z" fill="white"/>
<path fill-rule="evenodd" clip-rule="evenodd" d="M379.874 311.104L310.451 348.511V318.195L310.705 318.061L379.874 281.274V311.104Z" fill="white"/>
<path d="M381.31 311.962L309.015 350.918V317.33L310.033 316.791L381.31 278.882V311.962ZM311.887 319.059V346.104L378.437 310.246V283.665L311.887 319.059Z" fill="white"/>
<path fill-rule="evenodd" clip-rule="evenodd" d="M282.905 318.06L283.161 318.193V348.506L213.035 311.241L212.781 311.106V281.28L282.905 318.06Z" fill="white"/>
<path d="M283.569 316.785L283.826 316.919L284.597 317.322V350.897L212.362 312.511L212.363 312.51L212.109 312.376L211.345 311.972V278.904L283.569 316.785ZM214.217 310.24L281.725 346.114V319.063L214.217 283.655V310.24Z" fill="white"/>
<path fill-rule="evenodd" clip-rule="evenodd" d="M283.161 252.557V282.377L213.52 246.564L213.26 246.431V215.64L283.161 252.557Z" fill="white"/>
<path d="M284.597 251.69V284.732L212.867 247.844L212.606 247.712L211.823 247.311V213.256L284.597 251.69ZM214.696 245.553L281.725 280.022V253.422L214.696 218.023V245.553Z" fill="white"/>
<path fill-rule="evenodd" clip-rule="evenodd" d="M379.874 246.431L379.614 246.564L309.972 282.377V252.557L379.874 215.64V246.431Z" fill="white"/>
<path d="M381.31 247.311L380.267 247.844L380.266 247.844L308.536 284.732V251.69L381.31 213.256V247.311ZM311.409 253.422V280.022L378.437 245.553V218.023L311.409 253.422Z" fill="white"/>
<path d="M296.761 120.006C303.331 120.127 309.657 122.151 316.669 125.004L316.943 125.115L395.703 164.041L395.943 164.159L396.174 164.294C403.99 168.818 409.663 173.864 413.308 181.012C416.809 187.879 418.015 195.907 418.637 205.377L418.654 205.644V412.751L476.57 382.895L476.506 382.831L486.538 377.757C493.236 374.369 499.379 372.286 506.113 372.309C512.75 372.332 519.094 374.405 526.173 377.611L526.373 377.702L526.567 377.803L639.06 436.244L639.245 436.339L639.424 436.445C644.847 439.624 649.069 443.143 652.289 448.129C655.383 452.921 657.193 458.533 658.777 465.171L659 466.104V561.753L658.963 562.141C658.28 569.253 656.966 575.331 653.816 580.912C650.674 586.477 646.097 590.854 640.151 595.299L639.643 595.679L427.978 707.589C421.234 711.329 414.84 713.907 407.63 713.998C400.422 714.088 393.437 711.682 385.499 707.644L385.414 707.6L385.33 707.555L191.271 603.027L191.099 602.924C185.989 599.838 181.466 596.493 178.391 591.63C175.446 586.971 174.334 581.742 174.05 575.764L174.048 575.725L174.046 575.685L174.006 574.621L174 574.466V474.179L174.479 202.047C174.391 193.772 175.145 186.499 178.593 180.306L178.935 179.712C182.505 173.675 188.093 169.768 194.992 166.458L276.839 125.269C283.759 121.776 289.991 119.881 296.761 120.006ZM296.46 136.293C293.206 136.232 289.647 137.048 284.17 139.812L284.161 139.817L202.429 180.949L202.357 180.99L202.13 181.098C196.255 183.904 194.002 186.099 192.813 188.235L192.812 188.234C191.499 190.592 190.668 194.313 190.756 201.963L190.757 202.01V202.076L190.278 474.208V574.153L190.311 575.025C190.526 579.459 191.28 581.548 192.149 582.921C193.139 584.488 194.957 586.213 199.365 588.887L392.932 693.151C399.913 696.696 404.093 697.751 407.426 697.709C410.706 697.668 414.317 696.554 420.211 693.273L420.368 693.186L420.456 693.141L630.891 581.882C635.699 578.235 638.143 575.557 639.643 572.899C641.156 570.22 642.133 566.816 642.722 560.949V468.04C641.343 462.458 640.094 459.26 638.616 456.97C637.206 454.787 635.231 452.885 631.345 450.589L519.278 392.37C513.064 389.57 509.252 388.61 506.057 388.599C502.946 388.588 499.469 389.475 493.938 392.267L402.376 439.468V206.195C401.777 197.279 400.702 192.131 398.808 188.416C397.078 185.024 394.242 182.026 388.222 178.512L310.282 139.991C303.868 137.396 299.884 136.356 296.46 136.293Z" fill="white"/>
<path fill-rule="evenodd" clip-rule="evenodd" d="M351.217 191.996L296.089 221.288L240.472 191.996L296.089 163.192L351.217 191.996Z" fill="white"/>
<path d="M354.3 191.986L296.092 222.913L237.368 191.986L296.092 161.573L354.3 191.986ZM243.576 192.006L296.085 219.661L348.133 192.006L296.085 164.812L243.576 192.006Z" fill="white"/>
<path d="M383.468 534.019L383.471 534.021C383.473 534.022 383.476 534.024 383.48 534.027L383.519 534.048L383.667 534.133C383.798 534.206 383.988 534.315 384.232 534.453C384.58 534.651 385.036 534.909 385.575 535.215L386.266 535.606C387.957 536.565 390.231 537.853 392.565 539.171C397.224 541.801 402.148 544.565 403.12 545.051C403.348 545.165 403.558 545.28 403.76 545.393C403.959 545.505 404.159 545.619 404.355 545.721C404.751 545.927 405.165 546.104 405.66 546.175C406.65 546.316 407.84 546.017 409.772 545.051C411.694 544.089 455.391 520.967 498.594 498.093C520.199 486.654 541.685 475.276 557.769 466.756C565.81 462.497 572.502 458.952 577.184 456.472C579.524 455.233 581.362 454.259 582.615 453.595C583.241 453.263 583.721 453.009 584.044 452.838C584.206 452.752 584.329 452.687 584.411 452.643C584.452 452.622 584.483 452.606 584.504 452.595L584.527 452.583C584.529 452.581 584.533 452.579 584.533 452.579L584.311 452.155L584.535 452.578L585.329 452.158L564.907 441.192L564.901 441.189L564.292 440.884C562.897 440.21 561.673 439.807 560.367 439.781C558.876 439.75 557.339 440.21 555.372 441.185L555.366 441.188L555.359 441.192L382.712 533.59L383.468 534.019Z" fill="white"/>
<path d="M560.397 438.344C561.794 438.373 563.07 438.755 564.361 439.331L564.917 439.589L565.508 439.885L565.531 439.895L565.586 439.925L588.384 452.167L585.207 453.848C585.204 453.85 585.201 453.852 585.197 453.854L585.19 453.858L585.175 453.864L585.176 453.865C585.162 453.872 585.144 453.882 585.131 453.888C585.116 453.896 585.101 453.905 585.083 453.914L584.931 453.994C584.87 454.027 584.798 454.065 584.717 454.108C584.409 454.271 583.896 454.543 583.287 454.865C582.035 455.529 580.196 456.503 577.856 457.743C573.175 460.222 566.483 463.767 558.441 468.027C542.357 476.546 520.87 487.925 499.266 499.363C456.082 522.227 412.358 545.363 410.414 546.336C408.432 547.328 406.905 547.804 405.457 547.598C404.733 547.494 404.153 547.236 403.692 546.996C403.471 546.881 403.243 546.751 403.059 546.648C402.864 546.539 402.677 546.436 402.477 546.336C401.463 545.829 396.491 543.037 391.859 540.422C389.524 539.104 387.249 537.815 385.558 536.857L384.867 536.465C384.328 536.159 383.872 535.902 383.523 535.704C383.283 535.568 383.083 535.454 382.959 535.383L382.811 535.299L382.772 535.276C382.758 535.269 382.747 535.262 382.738 535.257L382.729 535.251C382.731 535.253 382.735 535.255 382.738 535.257C382.744 535.26 382.751 535.265 382.761 535.271L382.716 535.246L382.706 535.238L379.735 533.553L554.661 439.934L554.724 439.899L554.778 439.875C556.819 438.868 558.587 438.306 560.397 438.344ZM560.338 441.217C559.178 441.194 557.884 441.544 556.01 442.473L385.688 533.626C385.873 533.73 386.071 533.844 386.283 533.964L386.974 534.356L393.271 537.919C397.957 540.564 402.832 543.301 403.762 543.766C404.02 543.895 404.252 544.021 404.461 544.139C404.676 544.259 404.848 544.357 405.018 544.446C405.348 544.618 405.597 544.714 405.863 544.752C406.396 544.828 407.249 544.706 409.129 543.766C411.031 542.814 454.701 519.706 497.923 496.823C519.527 485.384 541.013 474.005 557.096 465.486C565.138 461.227 571.83 457.682 576.511 455.202C578.852 453.962 580.689 452.989 581.942 452.325C582.059 452.263 582.17 452.203 582.274 452.148L564.258 442.474L563.667 442.178L563.192 441.957C562.109 441.474 561.225 441.236 560.338 441.217Z" fill="white"/>
<path d="M384.954 534.311L384.718 534.728L382.188 533.367C382.194 533.354 382.205 533.339 382.22 533.312L382.218 533.311L382.454 532.894L382.455 532.894L384.954 534.311Z" fill="white"/>
<path d="M346.187 514.642L345.96 515.064L343.432 513.699L343.659 513.277L346.187 514.642Z" fill="white"/>
</svg>
